<svg width="55" height="55" viewBox="0 0 55 55" fill="none" xmlns="http://www.w3.org/2000/svg">
<rect width="55" height="55" rx="20" fill="#6200EE"/>
<path d="M15.2177 34.6579C14.956 34.4755 14.8924 34.1163 15.0756 33.8557L12.2326 31.8738C10.95 33.6977 11.3951 36.2116 13.227 37.4888L15.2177 34.6579ZM15.536 34.88L15.2177 34.6579L13.227 37.4888L13.5453 37.7107L15.536 34.88ZM21.7944 35.4541C20.5946 34.6178 19.1488 34.3865 17.8305 34.6936L18.6216 38.0585C19.0192 37.9657 19.4463 38.0357 19.8037 38.285L21.7944 35.4541ZM23.8678 38.9029C23.7069 37.5644 22.9941 36.2906 21.7944 35.4541L19.8037 38.285C20.1611 38.534 20.3732 38.9098 20.4218 39.3134L23.8678 38.9029ZM24.9453 41.4398L24.4768 41.1133L22.4861 43.944L22.9546 44.2706L24.9453 41.4398ZM25.7509 41.2983C25.5676 41.5591 25.207 41.6222 24.9453 41.4398L22.9546 44.2706C24.7864 45.5476 27.3112 45.1044 28.5939 43.2805L25.7509 41.2983ZM39.9244 21.1442L25.7509 41.2983L28.5939 43.2805L42.7673 23.1262L39.9244 21.1442ZM39.7823 20.342C40.044 20.5245 40.1076 20.8836 39.9244 21.1442L42.7673 23.1262C44.0501 21.3023 43.6049 18.7885 41.7731 17.5113L39.7823 20.342ZM37.546 18.783L39.7823 20.342L41.7731 17.5113L39.5368 15.9523L37.546 18.783ZM32.9504 19.5907C35.1871 21.1502 38.27 20.6089 39.8364 18.3818L36.9933 16.3997C36.5266 17.0635 35.6078 17.2248 34.9412 16.76L32.9504 19.5907ZM31.7362 12.7346C30.17 14.9617 30.7136 18.0313 32.9504 19.5907L34.9412 16.76C34.2745 16.2952 34.1124 15.3804 34.5793 14.7166L31.7362 12.7346ZM30.0547 13.5602L32.1409 15.0146L34.1316 12.1839L32.0454 10.7295L30.0547 13.5602ZM29.2491 13.7016C29.4323 13.441 29.793 13.3777 30.0547 13.5602L32.0454 10.7295C30.2135 9.45233 27.6888 9.8956 26.4061 11.7195L29.2491 13.7016ZM15.0756 33.8557L29.2491 13.7016L26.4061 11.7195L12.2326 31.8738L15.0756 33.8557ZM34.5793 14.7166C35.1395 13.9199 34.9835 12.7779 34.1316 12.1839L32.1409 15.0146C31.3712 14.478 31.2335 13.4494 31.7362 12.7346L34.5793 14.7166ZM39.5368 15.9523C38.6849 15.3583 37.5537 15.6029 36.9933 16.3997L39.8364 18.3818C39.3337 19.0967 38.3158 19.3196 37.546 18.783L39.5368 15.9523ZM20.4218 39.3134C20.4914 39.893 20.5834 40.7327 20.8245 41.519C21.0707 42.3219 21.5313 43.2784 22.4861 43.944L24.4768 41.1133C24.4056 41.0636 24.2723 40.9288 24.1439 40.51C24.0104 40.0746 23.947 39.5615 23.8678 38.9029L20.4218 39.3134ZM13.5453 37.7107C14.5001 38.3764 15.5602 38.4803 16.4023 38.4359C17.2269 38.3926 18.0508 38.1915 18.6216 38.0585L17.8305 34.6936C17.1817 34.845 16.676 34.9611 16.2192 34.9851C15.78 35.0081 15.6072 34.9295 15.536 34.88L13.5453 37.7107Z" fill="white"/>
</svg>
